<svg width="144" height="146" viewBox="0 0 144 146" fill="none" xmlns="http://www.w3.org/2000/svg">
<path fill-rule="evenodd" clip-rule="evenodd" d="M96.5557 0.542108C96.6606 0.392563 96.8665 0.356219 97.0161 0.460932L107.241 7.6203C107.39 7.72501 107.427 7.93111 107.322 8.08065L93.091 28.4044C100.009 30.6147 104.723 32.9988 104.723 32.9988C104.723 32.9988 93.2018 52.8163 73.6608 52.8163C54.1198 52.8163 40.2343 34.346 40.2343 34.346C40.2343 34.346 45.1578 31.2039 52.4562 28.509L36.8469 9.9067C36.7296 9.76683 36.7479 9.55834 36.8877 9.441L46.4493 1.41774C46.5894 1.3004 46.7978 1.31864 46.9151 1.45849L66.6791 25.0123C68.3713 24.8209 70.0954 24.7139 71.8352 24.7139C74.3358 24.7139 76.8333 24.904 79.2715 25.2266L96.5557 0.542108ZM100.422 53.7548C105.636 50.0305 113.527 40.3099 113.527 40.3099C113.527 40.3099 133.683 56.2821 133.683 90.1491C133.683 124.016 98.8369 144.399 98.8369 144.399C98.8369 144.399 82.1883 127.585 78.1012 106.272C74.0143 84.9587 84.1469 61.2926 84.1469 61.2926C84.1469 61.2926 95.2068 57.4791 100.422 53.7548V53.7548ZM44.2609 53.7548C39.0463 50.0305 31.1555 40.3099 31.1555 40.3099C31.1555 40.3099 11 56.2821 11 90.1491C11 124.016 45.8457 144.399 45.8457 144.399C45.8457 144.399 62.4943 127.585 66.5815 106.272C70.6683 84.9587 60.5357 61.2926 60.5357 61.2926C60.5357 61.2926 49.4758 57.4791 44.2609 53.7548V53.7548Z" fill="#91C12F"/>
</svg>
