<svg width="145" height="146" viewBox="0 0 145 146" fill="none" xmlns="http://www.w3.org/2000/svg">
<path fill-rule="evenodd" clip-rule="evenodd" d="M65.6095 127.764C68.3452 128.183 71.1471 128.4 74.0001 128.4C104.376 128.4 129 103.776 129 73.4C129 43.0242 104.376 18.3999 74.0001 18.3999C71.9621 18.3999 69.9498 18.5107 67.9695 18.7267C83.0375 30.1424 92.9999 49.9173 92.9999 72.3999C92.9999 96.0362 81.9887 116.68 65.6095 127.764ZM72.9999 144.4C112.764 144.4 145 112.164 145 72.3999C145 32.6354 112.764 0.399902 72.9999 0.399902C33.2354 0.399902 1 32.6354 1 72.3999C1 112.164 33.2354 144.4 72.9999 144.4Z" fill="#5A5465"/>
</svg>
