<svg width="144" height="146" viewBox="0 0 144 146" fill="none" xmlns="http://www.w3.org/2000/svg">
<path fill-rule="evenodd" clip-rule="evenodd" d="M78.9474 72.0852C79.9234 71.4901 80.7514 70.243 81.4191 68.857C90.2067 72.4486 96.3821 80.9356 96.3821 90.833C96.3821 103.981 85.4837 114.641 72.0399 114.641C66.5213 114.641 61.4315 112.844 57.3486 109.817C56.0093 109.183 54.9073 108.574 54.0056 108.075C52.607 107.302 51.6898 106.795 51.1155 106.874C49.4367 107.106 49.9241 108.65 50.3671 110.053C50.6678 111.007 50.9482 111.894 50.5142 112.261C50.0603 112.644 48.5899 111.242 46.8717 109.604C44.5328 107.374 41.735 104.707 40.4156 105.508C39.3725 106.141 40.3853 107.86 41.625 109.964L41.717 110.12C42.2407 111.009 42.8476 111.915 43.4014 112.741C44.5272 114.421 45.434 115.774 44.9803 116.003C44.4319 116.28 40.6108 113.701 37.3908 110.12C36.1479 108.738 34.9442 107.24 33.8254 105.848V105.848C31.3765 102.801 29.3363 100.263 28.1911 100.563C26.8134 100.925 27.8556 103.767 29.387 106.501C30.103 107.78 30.9454 109.082 31.6747 110.21V110.21C32.8089 111.964 33.6698 113.294 33.3577 113.458C32.9363 113.678 29.2292 110.063 26.7113 105.508C25.2157 102.802 23.9599 99.8117 22.9433 97.3909C21.8408 94.7655 21.0195 92.8099 20.4787 92.6131C18.5998 91.9293 18.5998 95.7602 19.3533 101.289C19.4516 102.011 19.598 102.767 19.7783 103.538C27.0863 127.183 49.536 144.4 76.097 144.4C108.586 144.4 134.923 118.641 134.923 86.8652C134.923 56.6218 111.065 31.8287 80.7525 29.5076C80.7908 28.0829 81.5344 25.2576 81.5344 25.2576C81.5344 25.2576 86.8857 12.3101 87.1687 9.54331C87.1872 9.35968 87.2094 9.16014 87.2333 8.94762C87.5666 5.95822 88.1868 0.399902 83.405 0.399902C80.8512 0.399902 79.6638 2.29965 78.3056 4.47237V4.4724C77.7842 5.30651 77.2374 6.18086 76.5788 7.00337C71.8346 12.9278 63.8573 20.3261 59.3339 24.2676C49.7731 32.5985 40.3928 39.4453 34.922 43.4385L34.9217 43.4387C32.4335 45.2548 30.7541 46.4807 30.2344 46.9873C26.3177 50.8055 12.2743 76.1366 12.2743 76.1366C12.2743 76.1366 7.73277 84.2636 9.34701 85.912C10.9612 87.5601 14.854 87.1824 14.854 87.1824C14.854 87.1824 67.1498 75.1851 71.8318 74.239C73.0924 73.9842 73.9823 73.8371 74.6654 73.7243C76.5203 73.418 76.8533 73.3629 78.9474 72.0852ZM41.9723 56.6679C39.1652 59.3361 34.5097 65.705 34.5097 65.705C34.5097 65.705 43.162 66.238 47.9273 61.7085C52.6928 57.1786 51.6009 49.4592 51.6009 49.4592C51.6009 49.4592 44.7792 53.9997 41.9723 56.6679Z" fill="#0B6DC3"/>
</svg>
