<svg width="145" height="145" viewBox="0 0 145 145" fill="none" xmlns="http://www.w3.org/2000/svg">
<path fill-rule="evenodd" clip-rule="evenodd" d="M51.2628 133.8C72.3573 133.8 90.417 122.076 97.8726 105.456C97.9638 105.254 67.9395 113.259 68.8968 110.429C69.3243 109.165 87.7293 102.442 101.139 94.5996C108.846 90.092 112.395 80.55 112.395 80.55C112.395 80.55 99.4102 86.8542 92.8461 88.4534C79.6184 91.6765 67.9743 91.3295 67.9743 90.9937C67.9743 90.2675 87.3089 86.5938 114.182 70.218C126.822 62.5154 130.255 49.2477 130.255 49.2477C130.255 49.2477 116.358 57.5255 107.957 60.2584C88.0348 66.7392 69.8542 68.6922 69.8542 67.8153C69.8542 65.9377 85.8537 61.5381 102.817 53.3185C111.637 49.0449 119.275 43.4616 128.127 37.2524C142.611 27.0934 145 9 145 9C145 9 130.714 18.2138 123.743 21.2736C94.9772 33.8993 69.5769 40.5222 51.2628 41.956C23.617 44.1205 1 63.4095 1 88.4534C1 113.498 23.5033 133.8 51.2628 133.8Z" fill="#89AAE3"/>
</svg>
