<svg width="144" height="146" viewBox="0 0 144 146" fill="none" xmlns="http://www.w3.org/2000/svg">
<path fill-rule="evenodd" clip-rule="evenodd" d="M25.0344 12.3715C26.7772 5.49092 33.0105 0.399902 40.4327 0.399902C46.0001 0.399902 50.8986 3.26435 53.7347 7.5999H58.379C61.2643 4.63879 65.2955 2.7999 69.7564 2.7999C76.2966 2.7999 81.9137 6.75283 84.3488 12.3999H88.2371C90.6735 10.8789 93.5524 9.99989 96.6363 9.99989C103.177 9.99989 108.794 13.9528 111.229 19.5999H121.802C121.893 19.5999 121.977 19.6242 122.05 19.6667C122.533 19.6225 123.022 19.5999 123.516 19.5999C132.289 19.5999 139.4 26.7112 139.4 35.4836V83.1116L139.4 83.1999L139.4 83.2882V83.9742C139.4 84.2647 139.392 84.5541 139.376 84.8421C138.421 117.883 108.711 144.4 72.1999 144.4C35.0864 144.4 5 117 5 83.1999C5 66.8849 12.0101 52.0607 23.4369 41.0897C23.4084 56.9953 23.6771 73.4388 24.9155 73.1567C28.2316 72.4007 25.6407 23.136 25.0344 12.3715Z" fill="#CE416B"/>
</svg>
