<svg width="145" height="144" viewBox="0 0 145 144" fill="none" xmlns="http://www.w3.org/2000/svg">
<path fill-rule="evenodd" clip-rule="evenodd" d="M29.8917 114.181L52.9885 107.484L72.9376 143.96C72.9637 144.007 73.0315 144.007 73.0574 143.96L93.0064 107.484L116.104 114.181C116.155 114.196 116.203 114.148 116.188 114.096L109.49 91.4566L144.959 72.0574C145.007 72.0315 145.007 71.9637 144.96 71.9378L109.197 52.3786L116.188 28.7508C116.203 28.699 116.155 28.6509 116.104 28.6658L92.4648 35.5202L73.0574 0.0354904C73.0315 -0.0118293 72.9637 -0.0118306 72.9378 0.0354893L53.5305 35.5202L29.8917 28.6658C29.8399 28.6509 29.7918 28.699 29.8073 28.7508L36.7978 52.3786L1.03549 71.9378C0.988171 71.9637 0.988169 72.0315 1.03549 72.0574L36.5053 91.4566L29.8073 114.096C29.7918 114.148 29.8399 114.196 29.8917 114.181ZM47.8146 72.2464L64.1775 81.1955L73.1266 97.558C73.1524 97.6056 73.2205 97.6056 73.2464 97.558L82.1955 81.1955L98.558 72.2464C98.6053 72.2205 98.6053 72.1524 98.558 72.1266L82.1955 63.1775L73.2464 46.8149C73.2205 46.7674 73.1524 46.7674 73.1266 46.8149L64.1775 63.1775L47.8146 72.1266C47.7674 72.1524 47.7674 72.2205 47.8146 72.2464Z" fill="#EC8FE6"/>
</svg>
