<svg width="144" height="144" viewBox="0 0 144 144" fill="none" xmlns="http://www.w3.org/2000/svg">
<path fill-rule="evenodd" clip-rule="evenodd" d="M100.073 111.205C101.852 104.699 98.3983 91.3247 98.3983 91.3247C98.3983 91.3247 95.8935 102.22 91.9796 106.247C88.6406 109.682 84.5498 112.064 78.683 112.69C83.4797 110.361 86.7785 105.502 86.7785 99.8873C86.7785 92.005 80.2782 85.615 72.2598 85.615C64.2413 85.615 57.7408 92.005 57.7408 99.8873C57.7408 102.04 58.226 104.082 59.0942 105.912C54.0789 101.917 53.2903 95.5108 53.2903 95.5108C53.2903 95.5108 47.6901 118.762 63.1211 129.699C78.5519 140.636 108.78 131.235 108.78 131.235C108.78 131.235 65.5216 161.673 33.4664 128.545C5.85351 100.008 26.2594 62.4383 26.2594 62.4383C26.2594 62.4383 25.3781 65.9236 25.3781 69.9694C25.3781 74.0152 27.5717 77.0934 27.5717 77.0934C27.5717 77.0934 34.115 63.3012 39.2073 57.6923C44.0268 52.3839 50.0683 48.0786 55.2866 44.3599C59.3034 41.4973 62.8326 38.9824 64.9403 36.6252C76.5494 23.6443 69.4313 0 69.4313 0C69.4313 0 82.5178 11.5369 86.1713 26.4369C87.564 32.1165 86.6679 38.5788 85.8669 44.3576C84.5664 53.739 83.5154 61.3195 92.9106 60.8276C108.093 60.0325 94.8999 36.6252 94.8999 36.6252C94.8999 36.6252 129.339 54.7265 126.767 86.3845C124.193 118.043 89.1224 125.24 89.1224 125.24C89.1224 125.24 98.2931 117.71 100.073 111.205Z" fill="#FF9D55"/>
</svg>
