<svg width="144" height="143" viewBox="0 0 144 143" fill="none" xmlns="http://www.w3.org/2000/svg">
<path fill-rule="evenodd" clip-rule="evenodd" d="M27.595 122.995C27.1007 122.53 26.6119 122.056 26.1288 121.573C0.623741 96.0682 0.623745 54.7163 26.1288 29.2114C51.6337 3.70626 132.903 2 132.903 2C132.903 2 143.996 96.0682 118.491 121.573C95.8389 144.225 60.6877 146.759 35.2393 129.176L55.7447 104.012L88.5244 96.9347L61.7665 94.2597L78.7715 76.9454L98.1282 72.705L82.822 68.1721L98.1282 40.5601L76.3567 64.9805L67.9493 53.1165L70.9089 72.705L55.7447 89.8L48.7154 68.1718V96.9347L27.595 122.995Z" fill="#63BC5A"/>
</svg>
