<svg width="145" height="145" viewBox="0 0 145 145" fill="none" xmlns="http://www.w3.org/2000/svg">
<path fill-rule="evenodd" clip-rule="evenodd" d="M32.7149 123.193C32.6758 123.193 32.6485 123.155 32.6614 123.118L69.425 19.2378C69.4332 19.2152 69.4546 19.2001 69.4785 19.2001H108.725C108.749 19.2001 108.77 19.2153 108.778 19.238L144.996 123.118C145.009 123.155 144.982 123.193 144.943 123.193H33.8196H32.7149ZM1.05662 123.6C1.01713 123.6 0.989795 123.56 1.00365 123.524L28.3804 50.4346C28.3887 50.4124 28.4098 50.3977 28.4334 50.3977H52.2207C52.2601 50.3977 52.2873 50.4368 52.2738 50.4737L25.8013 123.563C25.7932 123.585 25.7719 123.6 25.7481 123.6H1.05662Z" fill="#D97845"/>
</svg>
