<svg width="144" height="144" viewBox="0 0 144 144" fill="none" xmlns="http://www.w3.org/2000/svg">
<path fill-rule="evenodd" clip-rule="evenodd" d="M108.381 8.38037L108.824 47.2914L74.8858 63.5833L74.4673 26.8439L108.381 8.38037Z" fill="#73CEC0"/>
<path fill-rule="evenodd" clip-rule="evenodd" d="M142.403 69.6944L108.806 88.9114L75.1895 69.664L108.789 52.015L142.403 69.6944Z" fill="#73CEC0"/>
<path fill-rule="evenodd" clip-rule="evenodd" d="M69.2135 69.6944L35.6168 88.9114L2 69.664L35.5994 52.015L69.2135 69.6944Z" fill="#73CEC0"/>
<path fill-rule="evenodd" clip-rule="evenodd" d="M35.2393 8.22107L70.1103 25.4914L69.2188 63.1272L36.2939 46.8209L35.2393 8.22107Z" fill="#73CEC0"/>
<path fill-rule="evenodd" clip-rule="evenodd" d="M109.33 130.579L74.4592 113.308L75.3508 75.6724L108.276 91.979L109.33 130.579Z" fill="#73CEC0"/>
<path fill-rule="evenodd" clip-rule="evenodd" d="M36.4435 130.929L36.0002 92.018L69.939 75.7261L70.3575 112.465L36.4435 130.929Z" fill="#73CEC0"/>
</svg>
