<svg width="144" height="146" viewBox="0 0 144 146" fill="none" xmlns="http://www.w3.org/2000/svg">
<path fill-rule="evenodd" clip-rule="evenodd" d="M128.166 119.991C128.166 119.991 110.009 134.554 73.8761 128.527C46.4627 123.955 31.8416 93.7357 31.8416 77.4924C31.8416 38.9809 60.3452 30.2168 79.6156 30.2168C98.8857 30.2168 111.457 49.0043 111.457 63.5506C111.457 78.0968 101.169 90.82 85.1579 90.82C69.1475 90.82 64.4056 79.5799 64.4056 69.2459C64.4056 58.9122 72.7663 55.2714 80.3913 55.2714C88.0163 55.2714 90.6271 61.7812 90.6271 67.3761C90.6271 72.9713 86.286 74.975 82.6652 74.975C79.0444 74.975 78.6864 73.1482 77.3006 71.2284C75.9146 69.3089 79.068 62.0425 73.8761 62.0425C68.6843 62.0425 67.7165 70.3959 67.7165 70.3959C67.7165 70.3959 69.6093 86.5208 85.1579 86.2427C100.707 85.9642 108.083 73.9436 105.939 62.0425C103.796 50.1411 92.2457 37.4947 71.9749 40.0502C51.7041 42.6056 43.4277 63.0874 47.0758 84.9754C50.7239 106.864 76.9457 119.546 97.5627 114.983C118.18 110.42 138.714 95.4944 138.714 57.6514C138.714 19.808 105.939 -2.93921 66.8584 0.809661C27.7773 4.55852 3.51753 38.7258 5.07036 79.7784C6.6232 120.831 45.5773 143.19 78.517 144.342C111.457 145.494 131.65 126.427 131.65 126.427C131.65 126.427 136.192 122.377 134.411 119.214C132.631 116.052 128.166 119.991 128.166 119.991Z" fill="#FA7179"/>
</svg>
