<svg width="145" height="145" viewBox="0 0 145 145" fill="none" xmlns="http://www.w3.org/2000/svg">
<path fill-rule="evenodd" clip-rule="evenodd" d="M111.414 68.3615C111.406 68.3502 111.402 68.3362 111.405 68.3224L120.591 14.7538C120.596 14.7291 120.617 14.7111 120.642 14.7111H123.549C123.572 14.7111 123.592 14.7256 123.598 14.747L144.296 80.2792C144.302 80.2994 144.295 80.3219 144.278 80.3351L129.018 92.2497C128.995 92.2674 128.962 92.2629 128.945 92.2396L111.414 68.3615ZM0 103.873C0 103.896 0.0142864 103.915 0.0354068 103.922L31.493 114.208C31.5082 114.213 31.525 114.211 31.5383 114.202L101.853 65.6578C101.865 65.6497 101.873 65.637 101.875 65.6229L109.415 15.0284C109.42 14.9974 109.396 14.9695 109.365 14.9695H47.0829C47.0675 14.9695 47.0531 14.9763 47.0433 14.9881L0.0118198 71.7244C0.00417937 71.7337 0 71.7452 0 71.7573V103.873ZM44.6015 116.829L78.9683 128.086C78.9837 128.091 79.0009 128.089 79.0141 128.079L119.93 98.73C119.953 98.714 119.958 98.6827 119.943 98.6597L104.605 75.8348C104.589 75.8109 104.557 75.8047 104.533 75.8211L44.6015 116.829Z" fill="#C5B78C"/>
</svg>
