<svg width="145" height="145" viewBox="0 0 145 145" fill="none" xmlns="http://www.w3.org/2000/svg">
<path fill-rule="evenodd" clip-rule="evenodd" d="M1.01437 71.4877C0.995217 71.4551 0.995208 71.4146 1.01435 71.3817L37.2236 9.51631C37.2424 9.48422 37.277 9.46448 37.3142 9.46448H109.083C109.12 9.46448 109.155 9.48439 109.174 9.51676L144.986 71.3822C145.004 71.4146 145.004 71.4548 144.986 71.4871L109.174 133.283C109.155 133.315 109.12 133.335 109.083 133.335H37.3142C37.277 133.335 37.2424 133.316 37.2236 133.284L1.01437 71.4877ZM106.361 71.3999C106.361 89.8184 91.4297 104.75 73.0112 104.75C54.5927 104.75 39.6615 89.8184 39.6615 71.3999C39.6615 52.9812 54.5927 38.0502 73.0112 38.0502C91.4297 38.0502 106.361 52.9812 106.361 71.3999Z" fill="#5A8EA2"/>
</svg>
