<svg width="144" height="146" viewBox="0 0 144 146" fill="none" xmlns="http://www.w3.org/2000/svg">
<path fill-rule="evenodd" clip-rule="evenodd" d="M118.423 97.8605C118.423 123.562 97.5099 144.397 71.7117 144.397C45.9135 144.397 25 123.562 25 97.8605C25 72.8642 69.1849 4.21355 71.6082 0.46727C71.6636 0.381841 71.7601 0.381841 71.8152 0.467271C74.2384 4.21355 118.423 72.8642 118.423 97.8605ZM63.925 129.478C40.2212 124.291 44.2774 98.0335 44.2774 98.0335C44.2774 98.0335 50.7501 113.884 66.4577 119.019C82.1649 124.153 101.147 116.623 101.147 116.623C101.147 116.623 87.6287 134.664 63.925 129.478Z" fill="#5090D6"/>
</svg>
